<?xml version="1.0" encoding="UTF-8"?>
<svg xmlns="http://www.w3.org/2000/svg" viewBox="0 0 640 651" width="640" height="651" role="img" aria-labeledby="05-wdark-t 05-wdark-d" font-family="Manrope, ui-sans-serif, system-ui, -apple-system, 'Segoe UI', Roboto, Helvetica, Arial, sans-serif"><title id="05-wdark-t">The typical claim was 28× cheaper and 6× faster, in line with OpenChamber's own survey</title><desc id="05-wdark-d">126 cost chips on 120 posts and 297 speed chips on 281 posts. Cost claims, N× cheaper: median 28×, interquartile 5.25× to 100×. Speed claims, N× faster: median 6×, interquartile 2× to 16×.</desc><rect x="0" y="0" width="640" height="651" fill="#1a1a19"/><text x="24" y="44" font-size="20" font-weight="700" fill="#ffffff">The typical claim was 28× cheaper and 6× faster, in line</text><text x="24" y="69" font-size="20" font-weight="700" fill="#ffffff">with OpenChamber's own survey</text><text x="24" y="91" font-size="13" fill="#c3c2b7">126 cost chips on 120 posts and 297 speed chips on 281 posts.</text><text x="24" y="121" font-size="13"><tspan font-weight="700" fill="#ffffff">Cost claims, N× cheaper</tspan><tspan dx="6.7" font-size="11.5" fill="#c3c2b7">126 chips</tspan></text><line x1="30" y1="130.3" x2="30" y2="144.3" stroke-width="2" stroke="#ffffff"/><text x="44" y="141.5" font-size="11.5" fill="#ffffff">median 28× (34× without 1× chips)</text><path d="M260.6 131.3l6 6l-6 6l-6 -6z" fill="#ffffff"/><text x="274.6" y="141.5" font-size="11.5" fill="#ffffff">OpenChamber survey, about 30×</text><rect x="471.2" y="131.3" width="12" height="12" rx="2" fill="#5a5954"/><text x="491.2" y="141.5" font-size="11.5" fill="#ffffff">1× chips</text><rect x="24" y="151.8" width="12" height="12" rx="2" fill="#1c5cab"/><text x="44" y="162" font-size="11.5" fill="#ffffff">vs small LLMs on the same question (Pong, measured from Vercel)</text><line x1="54" y1="298" x2="616" y2="298" stroke-width="1" stroke="#4a4a46"/><text x="48" y="302" font-size="11" text-anchor="end" fill="#c3c2b7">0</text><line x1="54" y1="260.7" x2="616" y2="260.7" stroke-width="1" stroke="#2c2c2a"/><text x="48" y="264.7" font-size="11" text-anchor="end" fill="#c3c2b7">10</text><line x1="54" y1="223.3" x2="616" y2="223.3" stroke-width="1" stroke="#2c2c2a"/><text x="48" y="227.3" font-size="11" text-anchor="end" fill="#c3c2b7">20</text><line x1="54" y1="186" x2="616" y2="186" stroke-width="1" stroke="#2c2c2a"/><text x="48" y="190" font-size="11" text-anchor="end" fill="#c3c2b7">30</text><rect x="207.3" y="186" width="51.1" height="112" fill="#1c5cab" opacity="0.35"/><path d="M118.6 298h24v-29.9h-24z" fill="#5a5954"><title>Exactly 1×: 8 chips</title></path><path d="M118.6 266.1v0a3.7 3.7 0 0 1 3.7 -3.7h16.5a3.7 3.7 0 0 1 3.7 3.7v0z" fill="#3987e5"><title>1× to 2×: 1 chips</title></path><path d="M169.7 298v-66.9a4 4 0 0 1 4 -4h16a4 4 0 0 1 4 4v66.9z" fill="#3987e5"><title>2× to 5×: 19 chips</title></path><path d="M220.8 298v-48.3a4 4 0 0 1 4 -4h16a4 4 0 0 1 4 4v48.3z" fill="#3987e5"><title>5× to 10×: 14 chips</title></path><path d="M271.9 298v-40.8a4 4 0 0 1 4 -4h16a4 4 0 0 1 4 4v40.8z" fill="#3987e5"><title>10× to 20×: 12 chips</title></path><path d="M323 298v-85.6a4 4 0 0 1 4 -4h16a4 4 0 0 1 4 4v85.6z" fill="#3987e5"><title>20× to 50×: 24 chips</title></path><path d="M374.1 298v-33.3a4 4 0 0 1 4 -4h16a4 4 0 0 1 4 4v33.3z" fill="#3987e5"><title>50× to 100×: 10 chips</title></path><path d="M425.2 298v-55.7a4 4 0 0 1 4 -4h16a4 4 0 0 1 4 4v55.7z" fill="#3987e5"><title>100× to 200×: 16 chips</title></path><path d="M476.3 298v-52a4 4 0 0 1 4 -4h16a4 4 0 0 1 4 4v52z" fill="#3987e5"><title>200× to 500×: 15 chips</title></path><path d="M527.4 298v-7.2a4 4 0 0 1 4 -4h16a4 4 0 0 1 4 4v7.2z" fill="#3987e5"><title>500× to 1,000×: 3 chips</title></path><path d="M578.5 298v-10.9a4 4 0 0 1 4 -4h16a4 4 0 0 1 4 4v10.9z" fill="#3987e5"><title>1,000× to more: 4 chips</title></path><line x1="328.2" y1="182" x2="328.2" y2="298" stroke-width="5" stroke="#1a1a19"/><line x1="328.2" y1="182" x2="328.2" y2="298" stroke-width="1.5" stroke="#ffffff"/><path d="M332.1 174l5 5l-5 5l-5 -5z" stroke-width="1.5" fill="#ffffff" stroke="#1a1a19"/><text x="79.5" y="313" font-size="11" text-anchor="middle" fill="#c3c2b7">&lt;1</text><line x1="105.1" y1="298" x2="105.1" y2="302" stroke-width="1" stroke="#4a4a46"/><text x="105.1" y="313" font-size="11" text-anchor="middle" fill="#c3c2b7">1</text><line x1="156.2" y1="298" x2="156.2" y2="302" stroke-width="1" stroke="#4a4a46"/><text x="156.2" y="313" font-size="11" text-anchor="middle" fill="#c3c2b7">2</text><line x1="207.3" y1="298" x2="207.3" y2="302" stroke-width="1" stroke="#4a4a46"/><text x="207.3" y="313" font-size="11" text-anchor="middle" fill="#c3c2b7">5</text><line x1="258.4" y1="298" x2="258.4" y2="302" stroke-width="1" stroke="#4a4a46"/><text x="258.4" y="313" font-size="11" text-anchor="middle" fill="#c3c2b7">10</text><line x1="309.5" y1="298" x2="309.5" y2="302" stroke-width="1" stroke="#4a4a46"/><text x="309.5" y="313" font-size="11" text-anchor="middle" fill="#c3c2b7">20</text><line x1="360.5" y1="298" x2="360.5" y2="302" stroke-width="1" stroke="#4a4a46"/><text x="360.5" y="313" font-size="11" text-anchor="middle" fill="#c3c2b7">50</text><line x1="411.6" y1="298" x2="411.6" y2="302" stroke-width="1" stroke="#4a4a46"/><text x="411.6" y="313" font-size="11" text-anchor="middle" fill="#c3c2b7">100</text><line x1="462.7" y1="298" x2="462.7" y2="302" stroke-width="1" stroke="#4a4a46"/><text x="462.7" y="313" font-size="11" text-anchor="middle" fill="#c3c2b7">200</text><line x1="513.8" y1="298" x2="513.8" y2="302" stroke-width="1" stroke="#4a4a46"/><text x="513.8" y="313" font-size="11" text-anchor="middle" fill="#c3c2b7">500</text><line x1="564.9" y1="298" x2="564.9" y2="302" stroke-width="1" stroke="#4a4a46"/><text x="564.9" y="313" font-size="11" text-anchor="middle" fill="#c3c2b7">1k</text><text x="24" y="348" font-size="13"><tspan font-weight="700" fill="#ffffff">Speed claims, N× faster</tspan><tspan dx="6.7" font-size="11.5" fill="#c3c2b7">297 chips</tspan></text><line x1="30" y1="357.3" x2="30" y2="371.3" stroke-width="2" stroke="#ffffff"/><text x="44" y="368.5" font-size="11.5" fill="#ffffff">median 6× (8.1× without 1× chips)</text><path d="M257.1 358.3l6 6l-6 6l-6 -6z" fill="#ffffff"/><text x="271.1" y="368.5" font-size="11.5" fill="#ffffff">OpenChamber survey, about 7×</text><rect x="460.8" y="358.3" width="12" height="12" rx="2" fill="#5a5954"/><text x="480.8" y="368.5" font-size="11.5" fill="#ffffff">1× chips</text><rect x="24" y="378.8" width="12" height="12" rx="2" fill="#1c5cab"/><text x="44" y="389" font-size="11.5" fill="#ffffff">vs small LLMs on the same question (Pong, measured from Vercel)</text><line x1="54" y1="525" x2="616" y2="525" stroke-width="1" stroke="#4a4a46"/><text x="48" y="529" font-size="11" text-anchor="end" fill="#c3c2b7">0</text><line x1="54" y1="487.7" x2="616" y2="487.7" stroke-width="1" stroke="#2c2c2a"/><text x="48" y="491.7" font-size="11" text-anchor="end" fill="#c3c2b7">25</text><line x1="54" y1="450.3" x2="616" y2="450.3" stroke-width="1" stroke="#2c2c2a"/><text x="48" y="454.3" font-size="11" text-anchor="end" fill="#c3c2b7">50</text><line x1="54" y1="413" x2="616" y2="413" stroke-width="1" stroke="#2c2c2a"/><text x="48" y="417" font-size="11" text-anchor="end" fill="#c3c2b7">75</text><rect x="156.2" y="413" width="38.6" height="112" fill="#1c5cab" opacity="0.35"/><path d="M67.5 525v-0.5a4 4 0 0 1 4 -4h16a4 4 0 0 1 4 4v0.5z" fill="#3987e5"><title>under 1×: 3 chips</title></path><path d="M118.6 525h24v-76.2h-24z" fill="#5a5954"><title>Exactly 1×: 51 chips</title></path><path d="M118.6 446.8v-12.4a4 4 0 0 1 4 -4h16a4 4 0 0 1 4 4v12.4z" fill="#3987e5"><title>1× to 2×: 11 chips</title></path><path d="M169.7 525v-97.5a4 4 0 0 1 4 -4h16a4 4 0 0 1 4 4v97.5z" fill="#3987e5"><title>2× to 5×: 68 chips</title></path><path d="M220.8 525v-72.2a4 4 0 0 1 4 -4h16a4 4 0 0 1 4 4v72.2z" fill="#3987e5"><title>5× to 10×: 51 chips</title></path><path d="M271.9 525v-66.2a4 4 0 0 1 4 -4h16a4 4 0 0 1 4 4v66.2z" fill="#3987e5"><title>10× to 20×: 47 chips</title></path><path d="M323 525v-39.3a4 4 0 0 1 4 -4h16a4 4 0 0 1 4 4v39.3z" fill="#3987e5"><title>20× to 50×: 29 chips</title></path><path d="M374.1 525v-7.9a4 4 0 0 1 4 -4h16a4 4 0 0 1 4 4v7.9z" fill="#3987e5"><title>50× to 100×: 8 chips</title></path><path d="M425.2 525v-19.9a4 4 0 0 1 4 -4h16a4 4 0 0 1 4 4v19.9z" fill="#3987e5"><title>100× to 200×: 16 chips</title></path><path d="M476.3 525v-5a4 4 0 0 1 4 -4h16a4 4 0 0 1 4 4v5z" fill="#3987e5"><title>200× to 500×: 6 chips</title></path><path d="M527.4 525v-3.5a4 4 0 0 1 4 -4h16a4 4 0 0 1 4 4v3.5z" fill="#3987e5"><title>500× to 1,000×: 5 chips</title></path><path d="M578.5 525v0a3 3 0 0 1 3 -3h18a3 3 0 0 1 3 3v0z" fill="#3987e5"><title>1,000× to more: 2 chips</title></path><line x1="220.7" y1="409" x2="220.7" y2="525" stroke-width="5" stroke="#1a1a19"/><line x1="220.7" y1="409" x2="220.7" y2="525" stroke-width="1.5" stroke="#ffffff"/><path d="M232.1 401l5 5l-5 5l-5 -5z" stroke-width="1.5" fill="#ffffff" stroke="#1a1a19"/><text x="79.5" y="540" font-size="11" text-anchor="middle" fill="#c3c2b7">&lt;1</text><line x1="105.1" y1="525" x2="105.1" y2="529" stroke-width="1" stroke="#4a4a46"/><text x="105.1" y="540" font-size="11" text-anchor="middle" fill="#c3c2b7">1</text><line x1="156.2" y1="525" x2="156.2" y2="529" stroke-width="1" stroke="#4a4a46"/><text x="156.2" y="540" font-size="11" text-anchor="middle" fill="#c3c2b7">2</text><line x1="207.3" y1="525" x2="207.3" y2="529" stroke-width="1" stroke="#4a4a46"/><text x="207.3" y="540" font-size="11" text-anchor="middle" fill="#c3c2b7">5</text><line x1="258.4" y1="525" x2="258.4" y2="529" stroke-width="1" stroke="#4a4a46"/><text x="258.4" y="540" font-size="11" text-anchor="middle" fill="#c3c2b7">10</text><line x1="309.5" y1="525" x2="309.5" y2="529" stroke-width="1" stroke="#4a4a46"/><text x="309.5" y="540" font-size="11" text-anchor="middle" fill="#c3c2b7">20</text><line x1="360.5" y1="525" x2="360.5" y2="529" stroke-width="1" stroke="#4a4a46"/><text x="360.5" y="540" font-size="11" text-anchor="middle" fill="#c3c2b7">50</text><line x1="411.6" y1="525" x2="411.6" y2="529" stroke-width="1" stroke="#4a4a46"/><text x="411.6" y="540" font-size="11" text-anchor="middle" fill="#c3c2b7">100</text><line x1="462.7" y1="525" x2="462.7" y2="529" stroke-width="1" stroke="#4a4a46"/><text x="462.7" y="540" font-size="11" text-anchor="middle" fill="#c3c2b7">200</text><line x1="513.8" y1="525" x2="513.8" y2="529" stroke-width="1" stroke="#4a4a46"/><text x="513.8" y="540" font-size="11" text-anchor="middle" fill="#c3c2b7">500</text><line x1="564.9" y1="525" x2="564.9" y2="529" stroke-width="1" stroke="#4a4a46"/><text x="564.9" y="540" font-size="11" text-anchor="middle" fill="#c3c2b7">1k</text><text x="335" y="557" font-size="11.5" text-anchor="middle" fill="#c3c2b7">Claimed multiple (×), log bins; bars count chips</text><line x1="24" y1="585" x2="616" y2="585" stroke-width="1" stroke="#2c2c2a"/><text x="24" y="599" font-size="11" fill="#9d9b93">Source: jev.openchamber.dev, 5,950 posts 16 to 23 Sep 2026 (UTC), classified with Claude Opus 5.5, 1,681</text><text x="24" y="613.5" font-size="11" fill="#9d9b93">posts audited blind by Grok; analysis by Matthew O'Riordan</text><text x="24" y="628.5" font-size="11" fill="#9d9b93">Disclosure: the author is CEO of Ably, a realtime infrastructure company.</text></svg>
