<?xml version="1.0" encoding="UTF-8"?>
<svg xmlns="http://www.w3.org/2000/svg" viewBox="0 0 640 524" width="640" height="524" role="img" aria-labeledby="09-wdark-t 09-wdark-d" font-family="Manrope, ui-sans-serif, system-ui, -apple-system, 'Segoe UI', Roboto, Helvetica, Arial, sans-serif"><title id="09-wdark-t">When Jev was surest, it picked the same family as Opus 98.0% of the time</title><desc id="09-wdark-d">5,949 Jev calls in tenths. Audited: at 0.99 or more, Jev matched 98.1% of 464 posts. D1: 42.5%. D2: 49.1%. D3: 65.2%. D4: 76.5%. D5: 83.2%. D6: 86.9%. D7: 90.1%. D8: 95.8%. D9: 97.1%. D10: 98.0%.</desc><rect x="0" y="0" width="640" height="524" fill="#1a1a19"/><text x="24" y="44" font-size="20" font-weight="700" fill="#ffffff">When Jev was surest, it picked the same family as Opus</text><text x="24" y="69" font-size="20" font-weight="700" fill="#ffffff">98.0% of the time</text><text x="24" y="91" font-size="13" fill="#c3c2b7">5,949 Jev calls in tenths. Audited: at 0.99 or more, Jev matched 98.1% of 464 posts.</text><rect x="24" y="109.6" width="12" height="12" rx="2" fill="#d95926"/><text x="44" y="120" font-size="12" fill="#ffffff">Jev agreed with Opus</text><rect x="187.9" y="109.6" width="12" height="12" rx="2" fill="#5a5954"/><text x="207.9" y="120" font-size="12" fill="#ffffff">Disagreed</text><line x1="282.4" y1="115.6" x2="298.4" y2="115.6" stroke-width="2.5" stroke="#ffffff"/><text x="303.4" y="120" font-size="12" fill="#ffffff">Jev’s average stated probability</text><text x="24" y="142" font-size="11.5" fill="#c3c2b7">Cards</text><line x1="58" y1="384" x2="616" y2="384" stroke-width="1" stroke="#4a4a46"/><text x="52" y="388" font-size="11" text-anchor="end" fill="#c3c2b7">0</text><line x1="58" y1="307.3" x2="616" y2="307.3" stroke-width="1" stroke="#2c2c2a"/><text x="52" y="311.3" font-size="11" text-anchor="end" fill="#c3c2b7">200</text><line x1="58" y1="230.7" x2="616" y2="230.7" stroke-width="1" stroke="#2c2c2a"/><text x="52" y="234.7" font-size="11" text-anchor="end" fill="#c3c2b7">400</text><line x1="58" y1="154" x2="616" y2="154" stroke-width="1" stroke="#2c2c2a"/><text x="52" y="158" font-size="11" text-anchor="end" fill="#c3c2b7">600</text><path d="M71.9 384h28v-97h-28z" fill="#d95926"><title>D1 (stated 0.20–0.52): agreed on 253 of 595, 42.5%</title></path><path d="M71.9 285v-125.1a4 4 0 0 1 4 -4h20a4 4 0 0 1 4 4v125.1z" fill="#5a5954"><title>D1: disagreed on 342 of 595</title></path><line x1="67.9" y1="283.7" x2="103.9" y2="283.7" stroke-width="2" stroke="#ffffff"/><text x="85.9" y="147.9" font-size="12" font-weight="700" text-anchor="middle" fill="#ffffff">42.5%</text><text x="85.9" y="399" font-size="11" font-weight="600" text-anchor="middle" fill="#ffffff">D1</text><text x="85.9" y="412" font-size="10" text-anchor="middle" fill="#c3c2b7">0.20–0.52</text><path d="M127.7 384h28v-111.9h-28z" fill="#d95926"><title>D2 (stated 0.52–0.64): agreed on 292 of 595, 49.1%</title></path><path d="M127.7 270.1v-110.1a4 4 0 0 1 4 -4h20a4 4 0 0 1 4 4v110.2z" fill="#5a5954"><title>D2: disagreed on 303 of 595</title></path><line x1="123.7" y1="252" x2="159.7" y2="252" stroke-width="2" stroke="#ffffff"/><text x="141.7" y="399" font-size="11" font-weight="600" text-anchor="middle" fill="#ffffff">D2</text><text x="141.7" y="412" font-size="10" text-anchor="middle" fill="#c3c2b7">0.52–0.64</text><path d="M183.5 384h28v-148.7h-28z" fill="#d95926"><title>D3 (stated 0.64–0.75): agreed on 388 of 595, 65.2%</title></path><path d="M183.5 233.3v-73.3a4 4 0 0 1 4 -4h20a4 4 0 0 1 4 4v73.4z" fill="#5a5954"><title>D3: disagreed on 207 of 595</title></path><line x1="179.5" y1="225.7" x2="215.5" y2="225.7" stroke-width="2" stroke="#ffffff"/><text x="197.5" y="399" font-size="11" font-weight="600" text-anchor="middle" fill="#ffffff">D3</text><text x="197.5" y="412" font-size="10" text-anchor="middle" fill="#c3c2b7">0.64–0.75</text><path d="M239.3 384h28v-174.4h-28z" fill="#d95926"><title>D4 (stated 0.75–0.84): agreed on 455 of 595, 76.5%</title></path><path d="M239.3 207.6v-47.7a4 4 0 0 1 4 -4h20a4 4 0 0 1 4 4v47.7z" fill="#5a5954"><title>D4: disagreed on 140 of 595</title></path><line x1="235.3" y1="202.2" x2="271.3" y2="202.2" stroke-width="2" stroke="#ffffff"/><text x="253.3" y="399" font-size="11" font-weight="600" text-anchor="middle" fill="#ffffff">D4</text><text x="253.3" y="412" font-size="10" text-anchor="middle" fill="#c3c2b7">0.75–0.84</text><path d="M295.1 384h28v-189.7h-28z" fill="#d95926"><title>D5 (stated 0.84–0.91): agreed on 495 of 595, 83.2%</title></path><path d="M295.1 192.3v-32.3a4 4 0 0 1 4 -4h20a4 4 0 0 1 4 4v32.3z" fill="#5a5954"><title>D5: disagreed on 100 of 595</title></path><line x1="291.1" y1="184.1" x2="327.1" y2="184.1" stroke-width="2" stroke="#ffffff"/><text x="309.1" y="147.9" font-size="12" font-weight="700" text-anchor="middle" fill="#ffffff">83.2%</text><text x="309.1" y="399" font-size="11" font-weight="600" text-anchor="middle" fill="#ffffff">D5</text><text x="309.1" y="412" font-size="10" text-anchor="middle" fill="#c3c2b7">0.84–0.91</text><path d="M350.9 384h28v-197.8h-28z" fill="#d95926"><title>D6 (stated 0.91–0.96): agreed on 516 of 594, 86.9%</title></path><path d="M350.9 184.2v-23.9a4 4 0 0 1 4 -4h20a4 4 0 0 1 4 4v23.9z" fill="#5a5954"><title>D6: disagreed on 78 of 594</title></path><line x1="346.9" y1="171.6" x2="382.9" y2="171.6" stroke-width="2" stroke="#ffffff"/><text x="364.9" y="399" font-size="11" font-weight="600" text-anchor="middle" fill="#ffffff">D6</text><text x="364.9" y="412" font-size="10" text-anchor="middle" fill="#c3c2b7">0.91–0.96</text><path d="M406.7 384h28v-205.5h-28z" fill="#d95926"><title>D7 (stated 0.96–0.98): agreed on 536 of 595, 90.1%</title></path><path d="M406.7 176.5v-16.6a4 4 0 0 1 4 -4h20a4 4 0 0 1 4 4v16.6z" fill="#5a5954"><title>D7: disagreed on 59 of 595</title></path><line x1="402.7" y1="162.7" x2="438.7" y2="162.7" stroke-width="2" stroke="#ffffff"/><text x="420.7" y="399" font-size="11" font-weight="600" text-anchor="middle" fill="#ffffff">D7</text><text x="420.7" y="412" font-size="10" text-anchor="middle" fill="#c3c2b7">0.96–0.98</text><path d="M462.5 384h28v-218.5h-28z" fill="#d95926"><title>D8 (stated 0.98–0.99): agreed on 570 of 595, 95.8%</title></path><path d="M462.5 163.5v-3.6a4 4 0 0 1 4 -4h20a4 4 0 0 1 4 4v3.6z" fill="#5a5954"><title>D8: disagreed on 25 of 595</title></path><line x1="458.5" y1="158.7" x2="494.5" y2="158.7" stroke-width="2" stroke="#ffffff"/><text x="476.5" y="399" font-size="11" font-weight="600" text-anchor="middle" fill="#ffffff">D8</text><text x="476.5" y="412" font-size="10" text-anchor="middle" fill="#c3c2b7">0.98–0.99</text><path d="M518.3 384h28v-221.6h-28z" fill="#d95926"><title>D9 (stated 0.99–1.00): agreed on 578 of 595, 97.1%</title></path><path d="M518.3 160.4v-0.5a4 4 0 0 1 4 -4h20a4 4 0 0 1 4 4v0.5z" fill="#5a5954"><title>D9: disagreed on 17 of 595</title></path><line x1="514.3" y1="156.1" x2="550.3" y2="156.1" stroke-width="2" stroke="#ffffff"/><text x="532.3" y="399" font-size="11" font-weight="600" text-anchor="middle" fill="#ffffff">D9</text><text x="532.3" y="412" font-size="10" text-anchor="middle" fill="#c3c2b7">0.99–1.00</text><path d="M574.1 384h28v-223.5h-28z" fill="#d95926"><title>D10 (stated 1.00–1.00): agreed on 583 of 595, 98.0%</title></path><path d="M574.1 158.5v0a2.6 2.6 0 0 1 2.6 -2.6h22.8a2.6 2.6 0 0 1 2.6 2.6v0z" fill="#5a5954"><title>D10: disagreed on 12 of 595</title></path><line x1="570.1" y1="155.9" x2="606.1" y2="155.9" stroke-width="2" stroke="#ffffff"/><text x="588.1" y="147.9" font-size="12" font-weight="700" text-anchor="middle" fill="#ffffff">98.0%</text><text x="588.1" y="399" font-size="11" font-weight="600" text-anchor="middle" fill="#ffffff">D10</text><text x="588.1" y="412" font-size="10" text-anchor="middle" fill="#c3c2b7">1.00–1.00</text><text x="337" y="430" font-size="11.5" text-anchor="middle" fill="#c3c2b7">Tenths of Jev’s calls, least to most sure, with the stated probability range</text><line x1="24" y1="458" x2="616" y2="458" stroke-width="1" stroke="#2c2c2a"/><text x="24" y="472" font-size="11" fill="#9d9b93">Source: jev.openchamber.dev, 5,950 posts 16 to 23 Sep 2026 (UTC), classified with Claude Opus 5.5, 1,681</text><text x="24" y="486.5" font-size="11" fill="#9d9b93">posts audited blind by Grok; analysis by Matthew O'Riordan</text><text x="24" y="501.5" font-size="11" fill="#9d9b93">Disclosure: the author is CEO of Ably, a realtime infrastructure company.</text></svg>
