<?xml version="1.0" encoding="UTF-8"?>
<svg xmlns="http://www.w3.org/2000/svg" viewBox="0 0 640 433" width="640" height="433" role="img" aria-labeledby="10-wdark-t 10-wdark-d" font-family="Manrope, ui-sans-serif, system-ui, -apple-system, 'Segoe UI', Roboto, Helvetica, Arial, sans-serif"><title id="10-wdark-t">One post in five was in Japanese, and posting peaked on day 4</title><desc id="10-wdark-d">5,595 posts by language and by posting day (UTC). English: 68.7%. Japanese: 19.6%. Chinese: 6.5%. 25 other language codes: 5.2%. Peak day 2026-09-19: 1,027 posts.</desc><rect x="0" y="0" width="640" height="433" fill="#1a1a19"/><text x="24" y="44" font-size="20" font-weight="700" fill="#ffffff">One post in five was in Japanese, and posting peaked on</text><text x="24" y="69" font-size="20" font-weight="700" fill="#ffffff">day 4</text><text x="24" y="91" font-size="13" fill="#c3c2b7">5,595 posts by language and by posting day (UTC).</text><text x="24" y="121" font-size="12.5" font-weight="700" fill="#ffffff">Language of the post</text><text x="24" y="146" font-size="12" font-weight="600" fill="#ffffff">English</text><path d="M24 152h109a4 4 0 0 1 4 4v6a4 4 0 0 1 -4 4h-109z" fill="#5a5954"><title>English: 3,846 posts (68.7%)</title></path><text x="144" y="163.5" font-size="12"><tspan font-weight="700" fill="#ffffff">68.7%</tspan><tspan dx="6.4" font-size="11" fill="#c3c2b7">3,846</tspan></text><text x="24" y="188" font-size="12" font-weight="600" fill="#ffffff">Japanese</text><path d="M24 194h28.2a4 4 0 0 1 4 4v6a4 4 0 0 1 -4 4h-28.2z" fill="#3987e5"><title>Japanese: 1,098 posts (19.6%)</title></path><text x="63.2" y="205.5" font-size="12"><tspan font-weight="700" fill="#ffffff">19.6%</tspan><tspan dx="6.4" font-size="11" fill="#c3c2b7">1,098</tspan></text><text x="24" y="230" font-size="12" font-weight="600" fill="#ffffff">Chinese</text><path d="M24 236h6.6a4 4 0 0 1 4 4v6a4 4 0 0 1 -4 4h-6.6z" fill="#5a5954"><title>Chinese: 361 posts (6.5%)</title></path><text x="41.6" y="247.5" font-size="12"><tspan font-weight="700" fill="#ffffff">6.5%</tspan><tspan dx="6.4" font-size="11" fill="#c3c2b7">361</tspan></text><text x="24" y="272" font-size="12" font-weight="600" fill="#ffffff">25 other language codes</text><path d="M24 278h4.5a4 4 0 0 1 4 4v6a4 4 0 0 1 -4 4h-4.5z" fill="#5a5954"><title>25 other language codes: 290 posts (5.2%)</title></path><text x="39.5" y="289.5" font-size="12"><tspan font-weight="700" fill="#ffffff">5.2%</tspan><tspan dx="6.4" font-size="11" fill="#c3c2b7">290</tspan></text><text x="312.3" y="121" font-size="12.5" font-weight="700" fill="#ffffff">Posts per day (UTC), September</text><line x1="350.3" y1="313" x2="616" y2="313" stroke-width="1" stroke="#4a4a46"/><text x="344.3" y="317" font-size="11" text-anchor="end" fill="#c3c2b7">0</text><line x1="350.3" y1="279" x2="616" y2="279" stroke-width="1" stroke="#2c2c2a"/><text x="344.3" y="283" font-size="11" text-anchor="end" fill="#c3c2b7">250</text><line x1="350.3" y1="245" x2="616" y2="245" stroke-width="1" stroke="#2c2c2a"/><text x="344.3" y="249" font-size="11" text-anchor="end" fill="#c3c2b7">500</text><line x1="350.3" y1="211" x2="616" y2="211" stroke-width="1" stroke="#2c2c2a"/><text x="344.3" y="215" font-size="11" text-anchor="end" fill="#c3c2b7">750</text><line x1="350.3" y1="177" x2="616" y2="177" stroke-width="1" stroke="#2c2c2a"/><text x="344.3" y="181" font-size="11" text-anchor="end" fill="#c3c2b7">1,000</text><line x1="350.3" y1="143" x2="616" y2="143" stroke-width="1" stroke="#2c2c2a"/><text x="344.3" y="147" font-size="11" text-anchor="end" fill="#c3c2b7">1,250</text><path d="M356.6 313v-8.1a4 4 0 0 1 4 -4h12.6a4 4 0 0 1 4 4v8.1z" fill="#3a3a37"><title>2026-09-16: 89 posts (partial day)</title></path><text x="366.9" y="294.9" font-size="11.5" font-weight="700" text-anchor="middle" fill="#ffffff">89</text><text x="366.9" y="328" font-size="11" text-anchor="middle" fill="#c3c2b7">16</text><text x="366.9" y="341" font-size="10" text-anchor="middle" fill="#c3c2b7">partial</text><path d="M389.8 313v-94.1a4 4 0 0 1 4 -4h12.6a4 4 0 0 1 4 4v94.1z" fill="#5a5954"><title>2026-09-17: 721 posts</title></path><text x="400.1" y="328" font-size="11" text-anchor="middle" fill="#c3c2b7">17</text><path d="M423 313v-124.9a4 4 0 0 1 4 -4h12.6a4 4 0 0 1 4 4v124.9z" fill="#5a5954"><title>2026-09-18: 948 posts</title></path><text x="433.3" y="328" font-size="11" text-anchor="middle" fill="#c3c2b7">18</text><path d="M456.3 313v-135.7a4 4 0 0 1 4 -4h12.6a4 4 0 0 1 4 4v135.7z" fill="#3987e5"><title>2026-09-19: 1,027 posts</title></path><text x="466.6" y="167.3" font-size="11.5" font-weight="700" text-anchor="middle" fill="#ffffff">1,027</text><text x="466.6" y="328" font-size="11" font-weight="700" text-anchor="middle" fill="#ffffff">19</text><path d="M489.5 313v-124.5a4 4 0 0 1 4 -4h12.6a4 4 0 0 1 4 4v124.5z" fill="#5a5954"><title>2026-09-20: 945 posts</title></path><text x="499.8" y="328" font-size="11" text-anchor="middle" fill="#c3c2b7">20</text><path d="M522.7 313v-118.5a4 4 0 0 1 4 -4h12.6a4 4 0 0 1 4 4v118.5z" fill="#5a5954"><title>2026-09-21: 901 posts</title></path><text x="533" y="328" font-size="11" text-anchor="middle" fill="#c3c2b7">21</text><path d="M555.9 313v-81.4a4 4 0 0 1 4 -4h12.6a4 4 0 0 1 4 4v81.4z" fill="#5a5954"><title>2026-09-22: 628 posts</title></path><text x="566.2" y="328" font-size="11" text-anchor="middle" fill="#c3c2b7">22</text><path d="M589.1 313v-41.7a4 4 0 0 1 4 -4h12.6a4 4 0 0 1 4 4v41.7z" fill="#3a3a37"><title>2026-09-23: 336 posts (partial day)</title></path><text x="599.4" y="261.3" font-size="11.5" font-weight="700" text-anchor="middle" fill="#ffffff">336</text><text x="599.4" y="328" font-size="11" text-anchor="middle" fill="#c3c2b7">23</text><text x="599.4" y="341" font-size="10" text-anchor="middle" fill="#c3c2b7">partial</text><line x1="24" y1="367" x2="616" y2="367" stroke-width="1" stroke="#2c2c2a"/><text x="24" y="381" font-size="11" fill="#9d9b93">Source: jev.openchamber.dev, 5,950 posts 16 to 23 Sep 2026 (UTC), classified with Claude Opus 5.5, 1,681</text><text x="24" y="395.5" font-size="11" fill="#9d9b93">posts audited blind by Grok; analysis by Matthew O'Riordan</text><text x="24" y="410.5" font-size="11" fill="#9d9b93">Disclosure: the author is CEO of Ably, a realtime infrastructure company.</text></svg>
