<?xml version="1.0" encoding="UTF-8"?>
<svg xmlns="http://www.w3.org/2000/svg" viewBox="0 0 360 754" width="360" height="754" role="img" aria-labeledby="07-ndark-t 07-ndark-d" font-family="Manrope, ui-sans-serif, system-ui, -apple-system, 'Segoe UI', Roboto, Helvetica, Arial, sans-serif"><title id="07-ndark-t">Outside games, about 8 percent of posts have a live loop, and none of them is in production</title><desc id="07-ndark-d">376 posts flagged realtime outside games. Audited: a live loop 8.1% of posts (6.0 to 11.4). Labeled production: 2. Measured demo: 123. Demo, no numbers: 250. Proposal or commentary: 1.</desc><rect x="0" y="0" width="360" height="754" fill="#1a1a19"/><text x="16" y="33" font-size="17" font-weight="700" fill="#ffffff">Outside games, about 8 percent of</text><text x="16" y="54" font-size="17" font-weight="700" fill="#ffffff">posts have a live loop, and none of</text><text x="16" y="75" font-size="17" font-weight="700" fill="#ffffff">them is in production</text><text x="16" y="97" font-size="13" fill="#c3c2b7">376 posts flagged realtime outside games. Audited:</text><text x="16" y="115" font-size="13" fill="#c3c2b7">a live loop 8.1% of posts (6.0 to 11.4).</text><line x1="16" y1="204" x2="16" y2="609" stroke-width="1" stroke="#4a4a46"/><text x="16" y="624" font-size="11" fill="#c3c2b7">0</text><line x1="64.7" y1="204" x2="64.7" y2="609" stroke-width="1" stroke="#2c2c2a"/><text x="64.7" y="624" font-size="11" text-anchor="middle" fill="#c3c2b7">20</text><line x1="113.3" y1="204" x2="113.3" y2="609" stroke-width="1" stroke="#2c2c2a"/><text x="113.3" y="624" font-size="11" text-anchor="middle" fill="#c3c2b7">40</text><line x1="162" y1="204" x2="162" y2="609" stroke-width="1" stroke="#2c2c2a"/><text x="162" y="624" font-size="11" text-anchor="middle" fill="#c3c2b7">60</text><line x1="210.7" y1="204" x2="210.7" y2="609" stroke-width="1" stroke="#2c2c2a"/><text x="210.7" y="624" font-size="11" text-anchor="middle" fill="#c3c2b7">80</text><line x1="259.3" y1="204" x2="259.3" y2="609" stroke-width="1" stroke="#2c2c2a"/><text x="259.3" y="624" font-size="11" text-anchor="middle" fill="#c3c2b7">100</text><line x1="308" y1="204" x2="308" y2="609" stroke-width="1" stroke="#2c2c2a"/><text x="308" y="624" font-size="11" text-anchor="middle" fill="#c3c2b7">120</text><text x="162" y="640" font-size="11.5" text-anchor="middle" fill="#c3c2b7">Posts Opus flags realtime</text><rect x="16" y="133.6" width="12" height="12" rx="2" fill="#b7d3f6"/><text x="36" y="144" font-size="12" fill="#ffffff">Labeled production 2</text><rect x="174.8" y="133.6" width="12" height="12" rx="2" fill="#1c5cab"/><text x="194.8" y="144" font-size="12" fill="#ffffff">Measured demo 123</text><rect x="16" y="154.6" width="12" height="12" rx="2" fill="#5a5954"/><text x="36" y="165" font-size="12" fill="#ffffff">Demo, no numbers 250</text><rect x="16" y="175.6" width="12" height="12" rx="2" fill="#3a3a37"/><text x="36" y="186" font-size="12" fill="#ffffff">Proposal or commentary 1</text><text x="16" y="219.5" font-size="12" font-weight="600" fill="#ffffff">Trading and markets</text><path d="M16 224h1.5v14h-1.5z" fill="#b7d3f6"><title>Trading and markets, labeled production: 1 posts</title></path><path d="M18.4 224h144v14h-144z" fill="#1c5cab"><title>Trading and markets, measured demo: 60 posts</title></path><path d="M164.4 224h100.6a4 4 0 0 1 4 4v6a4 4 0 0 1 -4 4h-100.6z" fill="#5a5954"><title>Trading and markets, demo, no numbers: 43 posts</title></path><text x="275.1" y="235.5" font-size="11.5" fill="#c3c2b7">104</text><text x="16" y="252.5" font-size="12" font-weight="600" fill="#ffffff">Voice and turn-taking</text><path d="M16 257h49.1v14h-49.1z" fill="#1c5cab"><title>Voice and turn-taking, measured demo: 21 posts</title></path><path d="M67.1 257h112.8a4 4 0 0 1 4 4v6a4 4 0 0 1 -4 4h-112.8z" fill="#5a5954"><title>Voice and turn-taking, demo, no numbers: 48 posts</title></path><text x="189.9" y="268.5" font-size="11.5" fill="#c3c2b7">69</text><text x="16" y="285.5" font-size="12" font-weight="600" fill="#ffffff">Live chat and streams</text><path d="M16 290h1.5v14h-1.5z" fill="#b7d3f6"><title>Live chat and streams, labeled production: 1 posts</title></path><path d="M18.4 290h19.9v14h-19.9z" fill="#1c5cab"><title>Live chat and streams, measured demo: 9 posts</title></path><path d="M40.3 290h127.4a4 4 0 0 1 4 4v6a4 4 0 0 1 -4 4h-127.4z" fill="#5a5954"><title>Live chat and streams, demo, no numbers: 54 posts</title></path><text x="177.7" y="301.5" font-size="11.5" fill="#c3c2b7">64</text><text x="16" y="318.5" font-size="12" font-weight="600" fill="#ffffff">Collaboration and typing</text><path d="M16 323h24.8v14h-24.8z" fill="#1c5cab"><title>Collaboration and typing, measured demo: 11 posts</title></path><path d="M42.8 323h120.1a4 4 0 0 1 4 4v6a4 4 0 0 1 -4 4h-120.1z" fill="#5a5954"><title>Collaboration and typing, demo, no numbers: 51 posts</title></path><text x="172.9" y="334.5" font-size="11.5" fill="#c3c2b7">62</text><text x="16" y="351.5" font-size="12" font-weight="600" fill="#ffffff">Browser and computer use</text><path d="M16 356h5.3v14h-5.3z" fill="#1c5cab"><title>Browser and computer use, measured demo: 3 posts</title></path><path d="M23.3 356h34.9a4 4 0 0 1 4 4v6a4 4 0 0 1 -4 4h-34.9z" fill="#5a5954"><title>Browser and computer use, demo, no numbers: 16 posts</title></path><text x="68.2" y="367.5" font-size="11.5" fill="#c3c2b7">19</text><text x="16" y="384.5" font-size="12" font-weight="600" fill="#ffffff">Moderation and guardrails</text><path d="M16 389h19.9v14h-19.9z" fill="#1c5cab"><title>Moderation and guardrails, measured demo: 9 posts</title></path><path d="M37.9 389h10.2v14h-10.2z" fill="#5a5954"><title>Moderation and guardrails, demo, no numbers: 5 posts</title></path><path d="M50.1 389h0a2.4 2.4 0 0 1 2.4 2.4v9.1a2.4 2.4 0 0 1 -2.4 2.4h0z" fill="#3a3a37"><title>Moderation and guardrails, proposal or commentary: 1 posts</title></path><text x="58.5" y="400.5" font-size="11.5" fill="#c3c2b7">15</text><text x="16" y="417.5" font-size="12" font-weight="600" fill="#ffffff">Other or meta</text><path d="M16 422h1.5v14h-1.5z" fill="#1c5cab"><title>Other or meta, measured demo: 1 posts</title></path><path d="M18.4 422h30.1a4 4 0 0 1 4 4v6a4 4 0 0 1 -4 4h-30.1z" fill="#5a5954"><title>Other or meta, demo, no numbers: 14 posts</title></path><text x="58.5" y="433.5" font-size="11.5" fill="#c3c2b7">15</text><text x="16" y="450.5" font-size="12" font-weight="600" fill="#ffffff">Classification and routing</text><path d="M16 455h7.7v14h-7.7z" fill="#1c5cab"><title>Classification and routing, measured demo: 4 posts</title></path><path d="M25.7 455h8.2a4 4 0 0 1 4 4v6a4 4 0 0 1 -4 4h-8.2z" fill="#5a5954"><title>Classification and routing, demo, no numbers: 5 posts</title></path><text x="43.9" y="466.5" font-size="11.5" fill="#c3c2b7">9</text><text x="16" y="483.5" font-size="12" font-weight="600" fill="#ffffff">Data and telemetry</text><path d="M16 488h13a4 4 0 0 1 4 4v6a4 4 0 0 1 -4 4h-13z" fill="#5a5954"><title>Data and telemetry, demo, no numbers: 7 posts</title></path><text x="39" y="499.5" font-size="11.5" fill="#c3c2b7">7</text><text x="16" y="516.5" font-size="12" font-weight="600" fill="#ffffff">Search, rerank, extraction</text><path d="M16 521h5.3v14h-5.3z" fill="#1c5cab"><title>Search, rerank, extraction, measured demo: 3 posts</title></path><path d="M23.3 521h3.3a4 4 0 0 1 4 4v6a4 4 0 0 1 -4 4h-3.3z" fill="#5a5954"><title>Search, rerank, extraction, demo, no numbers: 3 posts</title></path><text x="36.6" y="532.5" font-size="11.5" fill="#c3c2b7">6</text><text x="16" y="549.5" font-size="12" font-weight="600" fill="#ffffff">Evals and judging</text><path d="M16 554h2.9v14h-2.9z" fill="#1c5cab"><title>Evals and judging, measured demo: 2 posts</title></path><path d="M20.9 554h0.9a4 4 0 0 1 4 4v6a4 4 0 0 1 -4 4h-0.9z" fill="#5a5954"><title>Evals and judging, demo, no numbers: 2 posts</title></path><text x="31.7" y="565.5" font-size="11.5" fill="#c3c2b7">4</text><text x="16" y="582.5" font-size="12" font-weight="600" fill="#ffffff">Agent harness and gating</text><path d="M16 587h0.9a4 4 0 0 1 4 4v6a4 4 0 0 1 -4 4h-0.9z" fill="#5a5954"><title>Agent harness and gating, demo, no numbers: 2 posts</title></path><text x="26.9" y="598.5" font-size="11.5" fill="#c3c2b7">2</text><line x1="16" y1="667" x2="344" y2="667" stroke-width="1" stroke="#2c2c2a"/><text x="16" y="681" font-size="11" fill="#9d9b93">Source: jev.openchamber.dev, 5,950 posts 16 to 23 Sep 2026</text><text x="16" y="695.5" font-size="11" fill="#9d9b93">(UTC), classified with Claude Opus 5.5, 1,681 posts audited</text><text x="16" y="710" font-size="11" fill="#9d9b93">blind by Grok; analysis by Matthew O'Riordan</text><text x="16" y="725" font-size="11" fill="#9d9b93">Disclosure: the author is CEO of Ably, a realtime</text><text x="16" y="739.5" font-size="11" fill="#9d9b93">infrastructure company.</text></svg>
